# xmcd CD database file
#
# Track frame offsets:
#	180
#	13136
#	33589
#	79972
#	130468
#	140040
#	154512
#	166004
#	186563
#	200018
#	231786
#	245559
#	260260
#	278887
#	291796
#	307328
#	329933
#
# Disc length: 4575 seconds
#
# Revision: 0
# Processed by: cddbd v1.5.2PL0 Copyright (c) Steve Scherf et al.
# Submitted via: CDex 1.51
#
DISCID=0d11dd11
DTITLE=Jazz Zone - CD 4
DYEAR=1900
DGENRE=Jazz
TTITLE0=Rosemary Clooney - Don't Worry 'bout Me
TTITLE1=Art Farmer - I'll Take Romance
TTITLE2=Chet Baker - Billie's Bounce
TTITLE3=Lee Konitz - If I Had You
TTITLE4=Lee Konitz - Bop Goes The Leesel
TTITLE5=Herbie Man - Cuban Love Song
TTITLE6=Stan Kenton (And His Orchestra) - Alone Too Long
TTITLE7=Kid Ory's Creole Jazz Band - I Found A New Baby
TTITLE8=Rosemary Clooney - Chicago Style
TTITLE9=Uby Baff - FIne And Mellow
TTITLE10=Lee Konitz - Limehouse Blues
TTITLE11=George Lewis - Canal Street Blues
TTITLE12=Kid Ory's Creole Jazz Band - Gettysburg March
TTITLE13=Stan Kenton (And His Orchestra) - A Theme Of Four Values
TTITLE14=Benny Goodman And His Orchestra - Jumpin' At The Woodside
TTITLE15=Sonny Rollins - Airegin
TTITLE16=Billy Holiday - How Deep Is The Ocean (How High Is The Sky)
EXTD=
EXTT0=
EXTT1=
EXTT2=
EXTT3=
EXTT4=
EXTT5=
EXTT6=
EXTT7=
EXTT8=
EXTT9=
EXTT10=
EXTT11=
EXTT12=
EXTT13=
EXTT14=
EXTT15=
EXTT16=
PLAYORDER=
